# xmcd
#
# Track frame offsets: 
#        150
#        10855
#        20290
#        30745
#        38097
#        51067
#        54630
#        65145
#        75952
#        86615
#        97787
#        115030
#        124575
#        133070
#        145762
#        163570
#        169842
#        181717
#        192897
#
# Disc length: 2754 seconds
#
# Revision: 4
# Processed by: cddbd v1.5.2PL0 Copyright (c) Steve Scherf et al.
# Submitted via: ExactAudioCopyFreeDBPlugin 1.0
#
DISCID=e80ac013
DTITLE=Original Cast of "Smokey Joe's Café" - Smokey Joe's Café:  The 
DTITLE=Songs of Leiber and Stoller
DYEAR=1995
DGENRE=Rhythm and Blues
TTITLE0=Neighborhood
TTITLE1=Young Blood
TTITLE2=Falling
TTITLE3=Ruby Baby
TTITLE4=Dance with Me
TTITLE5=Neighborhood (Reprise)
TTITLE6=Keep on Rollin'
TTITLE7=Searchin'
TTITLE8=Kansas City
TTITLE9=Trouble
TTITLE10=Love Me - Don't
TTITLE11=Fools Fall in Love
TTITLE12=Poison Ivy
TTITLE13=Don Juan
TTITLE14=Shoppin' for Clothes
TTITLE15=I Keep Forgettin'
TTITLE16=On Broadway
TTITLE17=D.W. Washburn
TTITLE18=Saved
EXTD=YEAR: 1995
EXTT0=Company
EXTT1=Adrian with Fred, Ken, Victor
EXTT2=DeLee
EXTT3=Michael with Adrian, Fred, Ken, Victor
EXTT4=Ken and B.J. with Adrian, Fred, Victor
EXTT5=B.J., Brenda, DeLee, Pattie
EXTT6=Victor, Adrian, Ken, Fred
EXTT7=Victor with Adrian, Ken, Fred
EXTT8=B.J., Pattie, Michael
EXTT9=DeLee, Brenda
EXTT10=Adrian and Pattie
EXTT11=B.J.
EXTT12=Ken with Adrian, Fred, Victor
EXTT13=Brenda
EXTT14=Victor and Fred with Adrian, Ken, Michael
EXTT15=Pattie
EXTT16=Adrian, Fred, Ken, Victor
EXTT17=Victor and Company
EXTT18=B.J. and Company
PLAYORDER=
